<?xml version="1.0" standalone="no"?>
<!DOCTYPE svg PUBLIC "-//W3C//DTD SVG 20010904//EN"
 "http://www.w3.org/TR/2001/REC-SVG-20010904/DTD/svg10.dtd">
<svg version="1.0" xmlns="http://www.w3.org/2000/svg"
 width="601.000000pt" height="601.000000pt" viewBox="0 0 601.000000 601.000000"
 preserveAspectRatio="xMidYMid meet">
<metadata>
Created by potrace 1.11, written by Peter Selinger 2001-2013
</metadata>
<g transform="translate(0.000000,601.000000) scale(0.100000,-0.100000)"
fill="#000000" stroke="none">
<path d="M1380 5541 c0 -6 5 -13 10 -16 6 -3 10 1 10 9 0 9 -4 16 -10 16 -5 0
-10 -4 -10 -9z"/>
<path d="M3905 5383 c-55 -6 -125 -19 -155 -27 -30 -8 -73 -18 -95 -21 -59
-10 -122 -59 -130 -103 -4 -23 -3 -38 4 -40 6 -2 11 -22 11 -45 0 -38 1 -39
15 -21 8 10 15 30 16 44 1 14 6 -2 11 -35 9 -65 10 -70 6 -100 -4 -26 16 -26
19 -1 4 22 11 32 18 24 3 -3 7 -58 9 -124 2 -65 4 -129 5 -141 2 -40 21 -24
21 17 0 22 5 40 11 40 5 0 7 -4 4 -10 -3 -5 0 -22 8 -37 18 -34 38 -107 40
-150 2 -18 6 -35 10 -39 4 -4 2 -13 -4 -20 -6 -8 -9 -20 -6 -28 3 -8 0 -22 -7
-31 -10 -14 -17 -15 -32 -7 -15 8 -19 23 -20 84 -3 121 -4 128 -13 128 -14 0
-7 -221 7 -247 11 -19 9 -24 -9 -33 -11 -7 -26 -9 -34 -7 -13 6 -16 -9 -32
-148 -6 -54 -7 -113 -4 -244 1 -34 4 -42 16 -37 10 4 15 -1 15 -16 0 -17 -2
-18 -15 -8 -13 11 -15 6 -16 -31 -1 -24 -3 -53 -4 -64 -1 -11 -3 -36 -4 -55
-3 -36 -5 -34 -16 14 -11 50 -24 14 -15 -42 5 -29 7 -59 4 -67 -3 -7 -1 -16 5
-20 7 -3 11 3 11 15 0 12 5 18 10 15 6 -3 10 -26 10 -50 0 -58 17 -94 40 -88
15 4 20 -3 25 -44 3 -26 10 -57 15 -68 16 -36 21 -65 13 -66 -50 -4 -73 -16
-73 -36 1 -17 1 -17 14 0 13 17 36 23 36 10 0 -14 -17 -35 -26 -33 -5 1 -10
-3 -12 -9 -2 -6 9 -11 26 -11 22 0 31 -6 35 -21 5 -18 11 -20 33 -15 23 6 26
5 21 -14 -4 -16 1 -24 20 -33 21 -9 27 -9 31 1 2 6 18 19 35 27 18 8 54 32 82
53 75 57 75 54 72 522 -2 251 2 298 24 290 25 -8 318 -7 313 2 -3 4 -16 8 -30
8 -13 0 -24 4 -24 8 0 5 13 7 30 4 16 -2 38 -1 47 3 10 4 72 9 138 12 66 2
129 5 140 8 11 2 38 4 61 4 26 1 49 8 65 22 13 12 45 32 70 45 48 24 55 34 69
92 7 27 4 40 -16 69 -13 19 -21 39 -18 44 8 14 -40 66 -99 107 l-52 37 -367 0
-367 0 -5 31 c-4 17 -6 70 -5 118 1 77 4 89 23 101 28 18 99 26 276 31 200 5
258 10 277 26 13 10 17 10 20 1 3 -7 16 -13 29 -13 14 0 22 4 19 10 -6 10 13
14 48 10 10 -1 25 4 33 11 10 8 52 12 127 11 127 0 182 15 172 48 -3 10 -1 21
5 25 22 14 9 27 -25 23 -43 -5 -47 10 -5 18 16 4 28 10 25 14 -2 4 4 15 15 25
41 37 19 52 -65 46 l-30 -3 29 31 c22 22 27 34 19 42 -8 8 -13 8 -17 0 -4 -6
-15 -11 -26 -11 -10 0 -21 -8 -25 -17 -6 -16 -10 -14 -32 11 -21 24 -28 28
-43 18 -15 -9 -19 -7 -23 10 -5 18 -2 20 26 16 18 -3 46 -2 62 2 30 7 30 7 7
16 -13 6 -23 14 -23 19 2 14 -69 18 -84 5 -8 -6 -11 -22 -9 -36 4 -22 1 -24
-28 -23 -29 1 -30 2 -9 8 l23 6 -20 25 c-19 23 -25 24 -108 22 -58 -1 -84 1
-74 7 8 5 18 7 22 5 4 -3 8 -1 8 5 0 20 -12 23 -195 35 -33 3 -60 5 -60 6 0 1
-65 3 -143 6 -79 2 -147 5 -150 7 -4 2 -52 -3 -107 -10z m942 -188 c2 -6 -11
-11 -29 -10 -17 0 -33 6 -36 13 -3 10 5 13 29 10 18 -2 34 -8 36 -13z m-1172
-325 c3 -5 1 -10 -4 -10 -6 0 -11 5 -11 10 0 6 2 10 4 10 3 0 8 -4 11 -10z
m-27 -462 c-2 -6 -10 -14 -16 -16 -7 -2 -10 2 -6 12 7 18 28 22 22 4z m-68
-613 c0 -8 -4 -15 -10 -15 -5 0 -7 7 -4 15 4 8 8 15 10 15 2 0 4 -7 4 -15z"/>
<path d="M1010 5318 c-41 -21 -124 -58 -184 -83 -118 -49 -182 -92 -269 -180
-38 -39 -61 -72 -71 -104 -41 -131 -48 -162 -42 -188 19 -87 26 -129 31 -185
3 -35 9 -74 12 -88 3 -14 7 -35 9 -47 12 -94 162 -264 299 -337 44 -24 111
-54 150 -66 77 -26 149 -62 192 -99 107 -91 155 -135 163 -152 13 -24 -21 -91
-61 -119 -42 -30 -129 -68 -174 -76 -45 -9 -49 -9 -165 -1 -52 4 -97 2 -117
-5 -24 -9 -46 -8 -90 1 -119 25 -177 43 -202 60 -14 10 -41 23 -60 30 -19 6
-49 23 -68 37 -19 14 -40 23 -48 20 -8 -3 -17 -1 -20 4 -10 17 -23 11 -27 -11
-3 -20 -6 -19 -48 16 -42 35 -45 36 -48 16 -2 -14 -11 -21 -26 -21 -34 0 -36
-7 -16 -61 13 -34 15 -49 6 -49 -14 0 -57 28 -73 48 -10 12 -15 12 -27 3 -13
-11 -12 -19 5 -68 10 -31 26 -64 34 -73 9 -10 18 -27 20 -40 6 -29 23 -55 71
-106 22 -23 49 -53 61 -67 28 -30 154 -92 208 -101 43 -7 60 -10 175 -21 41
-4 82 -11 90 -15 8 -4 44 -11 80 -15 36 -3 76 -8 90 -10 225 -32 373 -16 538
60 31 15 77 33 101 42 68 23 118 57 201 138 24 22 68 109 101 195 7 19 14 76
16 125 4 78 1 99 -22 160 -29 77 -55 116 -124 186 -140 142 -307 265 -406 299
-77 27 -151 66 -193 102 -19 16 -52 40 -74 54 -43 28 -84 100 -73 133 7 24
157 98 214 106 23 3 55 11 70 17 14 6 82 12 151 13 69 1 141 8 160 14 19 6 47
11 61 11 15 0 46 11 70 25 38 21 50 36 82 103 41 86 45 109 21 126 -8 6 -16
20 -18 31 -3 22 -46 35 -46 14 0 -10 -3 -10 -12 -1 -7 7 -21 12 -32 12 -12 1
-36 14 -55 30 -18 15 -40 26 -47 23 -9 -3 -18 6 -25 23 -6 16 -21 43 -35 61
-13 17 -24 36 -24 42 0 13 -37 24 -51 15 -6 -3 -14 -1 -18 5 -11 17 -48 22
-190 24 l-126 3 -75 -38z"/>
<path d="M1568 5313 c-29 -5 -36 -21 -16 -41 9 -9 17 -5 35 14 24 26 28 35 16
33 -5 -1 -20 -4 -35 -6z"/>
<path d="M2259 5290 c0 -8 -1 -31 -1 -50 0 -22 -1 -27 -5 -12 -5 25 -14 27
-45 10 -36 -20 -46 -40 -41 -75 4 -21 1 -33 -6 -33 -10 0 -16 26 -12 57 2 18
-18 26 -34 13 -13 -11 -15 -7 -15 19 0 17 -4 31 -10 31 -11 0 -19 -28 -22 -85
-3 -34 -6 -40 -24 -37 -32 4 -47 -20 -33 -54 6 -16 13 -63 15 -104 3 -41 8
-82 10 -90 3 -8 8 -80 11 -160 5 -169 5 -176 -1 -300 -3 -52 -7 -148 -10 -213
-3 -64 -8 -122 -12 -128 -4 -7 -6 -39 -4 -73 3 -66 3 -86 -4 -216 -5 -118 -12
-171 -24 -200 -6 -14 -11 -19 -11 -12 -1 6 -5 12 -10 12 -13 0 -24 -57 -15
-72 5 -7 7 -22 6 -33 -3 -22 60 -94 119 -138 49 -37 169 -76 249 -82 78 -7
317 -7 380 -1 25 2 88 7 140 11 52 4 115 8 140 11 25 2 81 6 124 10 44 3 88
10 98 15 10 5 18 7 18 4 0 -3 13 1 29 9 33 17 74 79 60 93 -5 5 -2 20 6 36 13
25 12 28 -10 43 -14 9 -22 20 -19 26 3 5 1 15 -5 22 -9 10 -8 15 5 20 12 4 14
13 10 32 -4 14 -3 23 1 21 11 -7 71 22 108 51 25 20 27 24 13 40 -8 9 -18 25
-21 34 -5 15 -10 16 -31 6 -20 -8 -29 -8 -42 3 -17 14 -128 15 -169 2 -11 -3
-92 -7 -180 -9 -88 -1 -216 -4 -285 -5 -142 -3 -226 3 -240 17 -14 14 -15 118
-1 269 6 72 14 155 16 185 3 30 7 73 10 95 19 167 25 385 13 435 -4 19 -10 55
-13 80 -10 92 -16 134 -21 142 -3 5 -8 24 -11 41 -3 18 -9 37 -14 43 -5 6 -6
13 -3 17 6 5 -10 40 -28 61 -4 6 -17 22 -28 35 -12 14 -23 35 -26 48 -4 13
-12 23 -19 23 -7 0 -27 17 -44 38 -19 23 -31 31 -32 22z m41 -90 c0 -5 -7 -10
-15 -10 -8 0 -15 5 -15 10 0 6 7 10 15 10 8 0 15 -4 15 -10z"/>
<path d="M1610 5194 c0 -8 5 -12 10 -9 6 4 8 11 5 16 -9 14 -15 11 -15 -7z"/>
<path d="M2587 5153 c-14 -13 -6 -23 18 -23 16 0 25 6 25 15 0 15 -31 21 -43
8z"/>
<path d="M5009 5141 c-13 -11 -22 -22 -19 -25 8 -7 53 17 58 32 6 18 -12 15
-39 -7z"/>
<path d="M325 3869 c-11 -17 1 -21 15 -4 8 9 8 15 2 15 -6 0 -14 -5 -17 -11z"/>
<path d="M218 3783 c7 -3 16 -2 19 1 4 3 -2 6 -13 5 -11 0 -14 -3 -6 -6z"/>
<path d="M3547 3608 c-14 -12 -14 -15 -2 -32 8 -11 16 -18 16 -15 2 5 5 59 4
59 -1 0 -9 -6 -18 -12z"/>
<path d="M3590 3575 c0 -8 5 -15 10 -15 6 0 10 -8 8 -17 -2 -10 4 -19 15 -21
19 -4 21 6 7 42 -10 28 -40 36 -40 11z"/>
<path d="M3435 3490 c-3 -5 -2 -10 4 -10 5 0 13 5 16 10 3 6 2 10 -4 10 -5 0
-13 -4 -16 -10z"/>
<path d="M3885 3036 c-9 -22 -26 -41 -41 -46 -37 -14 -49 -13 -34 5 8 10 10
19 4 25 -11 11 -84 -50 -84 -69 0 -7 -15 -26 -34 -43 -30 -26 -33 -34 -30 -71
2 -23 6 -82 8 -132 3 -49 10 -119 16 -155 7 -36 13 -76 15 -90 1 -14 8 -54 15
-90 7 -36 15 -105 16 -155 2 -49 5 -117 8 -150 2 -33 4 -172 4 -310 0 -137 0
-269 1 -292 1 -23 -3 -44 -8 -47 -4 -3 -4 -24 3 -46 8 -33 8 -43 -4 -50 -12
-7 -12 -12 0 -35 12 -22 12 -30 1 -47 -8 -12 -9 -23 -3 -27 9 -6 24 -52 26
-79 1 -11 26 -27 117 -73 9 -4 26 -5 38 -2 11 3 21 1 21 -5 0 -17 38 -20 59
-5 12 8 45 22 74 32 43 15 53 23 61 48 4 17 19 36 32 42 29 13 44 48 42 94 -1
17 2 52 6 77 5 25 9 72 10 106 1 35 7 68 14 77 13 15 16 15 40 -2 15 -10 53
-35 85 -57 66 -44 63 -42 282 -169 88 -50 207 -116 265 -145 58 -29 112 -57
120 -62 29 -16 112 -48 125 -48 8 0 26 -5 42 -12 15 -6 31 -11 36 -10 4 1 7
-2 7 -7 0 -4 23 -11 51 -14 28 -4 58 -12 66 -19 16 -13 19 -14 78 -23 22 -4
56 -13 76 -20 41 -16 53 -11 39 15 -11 20 -4 30 22 30 16 0 17 3 8 20 -6 11
-17 20 -24 20 -8 0 -19 6 -25 14 -16 19 5 32 25 16 13 -12 111 -16 122 -5 3 2
16 -5 30 -15 13 -11 32 -20 41 -20 10 0 22 -5 29 -12 9 -9 13 -7 18 6 8 20
-13 44 -42 50 -33 7 -74 25 -74 33 0 16 16 29 35 28 17 0 20 8 23 48 2 30 8
50 18 54 29 11 14 47 -41 98 -30 28 -55 48 -55 44 0 -4 -15 -2 -34 3 -24 8
-51 8 -86 1 -41 -8 -53 -8 -57 3 -2 7 -11 10 -19 7 -7 -3 -34 7 -59 21 -25 14
-52 23 -59 20 -7 -3 -19 2 -26 11 -7 8 -19 15 -26 15 -8 0 -14 5 -14 10 0 6
-6 10 -13 10 -8 0 -22 9 -31 19 -10 11 -24 17 -31 15 -8 -3 -24 6 -36 20 -13
15 -33 26 -48 26 -14 0 -37 9 -51 20 -14 11 -30 20 -36 20 -5 0 -19 8 -30 19
-11 10 -38 24 -60 31 -56 18 -154 93 -154 117 0 7 -8 13 -17 13 -10 0 -27 7
-37 15 -11 8 -27 15 -36 15 -9 0 -22 11 -28 26 -7 14 -29 32 -50 41 -20 8 -56
31 -80 50 l-43 35 22 24 c12 13 30 24 40 24 9 0 30 7 45 15 16 8 39 15 52 15
26 0 27 3 8 38 -8 15 -20 41 -26 59 -9 25 -21 34 -62 48 -57 18 -85 13 -90
-18 -2 -18 -10 -22 -43 -23 -76 -2 -80 -3 -92 -34 -6 -16 -19 -30 -27 -30 -9
0 -20 -9 -24 -20 -12 -32 -33 -7 -37 46 -14 160 -24 255 -29 262 -3 5 -8 40
-11 78 -8 104 -12 138 -19 171 l-7 31 68 -4 c97 -6 193 -14 228 -19 17 -2 49
-6 72 -9 44 -5 61 -8 125 -28 31 -9 40 -18 52 -52 20 -56 16 -87 -16 -114 -16
-13 -28 -32 -28 -43 0 -10 -9 -23 -20 -29 -14 -7 -20 -7 -20 0 0 5 -6 10 -14
10 -17 0 -58 -62 -47 -70 5 -3 8 -16 7 -30 -1 -22 3 -25 28 -22 23 3 27 0 22
-14 -5 -13 -2 -15 14 -11 13 3 20 0 20 -10 0 -20 51 -73 71 -73 9 0 22 7 29
15 18 21 56 15 52 -7 -2 -10 -1 -18 1 -18 16 0 134 45 160 60 18 11 38 20 45
20 33 0 209 169 225 215 5 16 16 37 23 45 33 39 53 233 29 280 -7 14 -36 47
-64 74 -46 42 -55 47 -84 41 -18 -4 -40 -14 -49 -23 -16 -13 -22 -12 -59 12
-23 16 -43 36 -46 45 -3 10 -25 23 -56 33 -56 16 -75 14 -57 -7 13 -15 -3 -30
-21 -20 -17 11 -72 13 -100 3 -17 -6 -36 -5 -55 3 -35 15 -45 17 -110 22 -28
2 -56 7 -63 11 -14 9 -9 30 7 32 7 1 18 2 25 3 7 1 3 7 -8 13 -29 17 -136 18
-142 1 -3 -7 -12 -13 -20 -13 -8 0 -12 4 -8 9 18 30 -122 44 -145 16 -8 -9
-20 -13 -29 -10 -30 12 -51 14 -56 5 -3 -5 -16 -6 -28 -1 -12 4 -37 6 -54 4
-29 -4 -33 -1 -33 19 -1 23 -1 23 -23 -4 -16 -19 -32 -28 -52 -28 -31 1 -69
22 -58 33 3 4 0 13 -6 21 -7 8 -11 22 -9 32 6 33 -22 26 -37 -10z"/>
<path d="M2548 3032 c-10 -2 -15 -9 -11 -18 6 -15 29 -19 37 -6 8 13 -8 28
-26 24z"/>
<path d="M2525 2928 c12 -38 20 -39 27 -3 2 12 -3 21 -15 23 -16 3 -18 0 -12
-20z"/>
<path d="M2031 2926 c-15 -17 -17 -43 -7 -73 4 -14 3 -23 -3 -23 -11 0 -26 20
-26 35 0 20 -28 9 -49 -18 -16 -21 -20 -40 -18 -86 1 -47 -2 -61 -18 -76 -16
-14 -23 -16 -32 -7 -9 9 -7 12 10 12 13 0 22 6 22 15 0 8 -4 15 -8 15 -5 0
-14 12 -20 26 -13 27 -32 24 -32 -5 0 -10 -7 -24 -15 -31 -23 -19 -19 -43 5
-35 18 6 19 3 13 -27 -4 -18 -12 -39 -20 -46 -7 -7 -13 -21 -14 -30 0 -9 -2
-28 -4 -42 -10 -78 -8 -122 5 -130 7 -4 14 -20 16 -34 2 -21 -1 -25 -19 -23
-20 2 -22 -2 -22 -63 0 -49 3 -65 14 -65 8 0 15 8 17 18 6 45 10 19 9 -69 0
-52 3 -100 7 -106 3 -7 3 -19 -2 -28 -5 -9 -5 -22 0 -30 8 -14 -5 -60 -20 -70
-4 -3 -10 -23 -12 -45 -2 -34 1 -42 19 -50 31 -13 39 -37 11 -33 -11 2 -23 -3
-25 -10 -3 -7 1 -10 9 -7 11 5 14 -1 10 -25 -2 -16 -9 -30 -14 -30 -5 0 -7 -9
-3 -20 3 -10 2 -36 -4 -56 -9 -32 -8 -37 10 -41 23 -6 26 -23 4 -23 -21 0 -29
-24 -16 -48 8 -15 7 -23 -6 -33 -15 -12 -16 -12 -10 3 7 19 -8 34 -18 18 -3
-5 1 -20 9 -32 9 -12 16 -33 16 -46 0 -12 7 -34 17 -48 21 -33 24 -92 7 -126
-18 -34 -18 -48 0 -48 17 0 14 -34 -4 -55 -15 -18 -16 -63 -2 -105 17 -51 18
-106 3 -124 -22 -26 -3 -32 22 -8 34 32 44 27 44 -22 1 -63 17 -88 51 -79 24
6 26 5 14 -10 -10 -11 -11 -21 -3 -34 9 -16 11 -16 20 8 5 15 7 37 4 49 l-6
22 29 -18 c15 -11 29 -18 31 -16 11 8 23 -1 23 -18 0 -11 5 -20 10 -20 6 0 10
5 10 11 0 6 11 24 25 41 14 16 25 36 25 44 0 8 6 27 14 43 8 15 17 45 19 67 8
66 19 118 30 139 10 19 12 45 26 270 4 66 11 128 15 138 8 17 55 47 74 47 6 0
47 -46 93 -102 147 -180 281 -306 429 -402 110 -71 198 -111 215 -96 16 13 82
10 129 -7 50 -17 56 -17 56 6 0 14 5 18 20 14 18 -5 25 5 21 30 0 4 5 7 11 7
25 1 78 59 78 85 0 14 5 26 10 26 6 1 15 3 20 4 6 1 14 3 20 4 5 0 7 13 5 29
-3 15 -7 43 -9 62 -3 19 -12 40 -20 46 -9 6 -14 20 -12 31 6 27 1 32 -79 87
-99 67 -137 94 -160 112 -11 8 -42 28 -69 42 -27 15 -60 33 -73 40 -33 18 -87
67 -215 196 -102 102 -108 110 -95 129 19 29 330 237 568 379 108 65 204 127
214 137 10 12 15 29 12 41 -4 15 5 29 35 52 31 26 37 34 25 43 -19 14 -15 46
13 85 l23 33 -21 17 c-14 12 -19 24 -15 39 3 14 0 23 -11 27 -9 3 -16 15 -16
26 0 10 -9 39 -21 64 -20 45 -20 45 -45 29 -27 -17 -73 -23 -93 -11 -6 4 -11
2 -11 -3 0 -6 6 -11 13 -11 6 -1 -6 -10 -27 -20 -46 -23 -86 -58 -86 -75 0 -6
-16 -19 -35 -28 -32 -15 -49 -47 -25 -47 15 0 -8 -44 -31 -58 -15 -10 -24 -10
-42 -1 -20 12 -21 12 -2 19 22 8 10 15 -25 15 -21 0 -25 -5 -26 -30 -2 -57 -3
-58 -18 -46 -10 8 -22 5 -50 -14 -21 -14 -41 -23 -44 -21 -4 2 -15 -9 -24 -25
-10 -16 -13 -29 -8 -29 6 0 10 -13 10 -29 0 -20 -6 -30 -20 -34 -11 -3 -20
-14 -20 -24 0 -14 -7 -19 -25 -19 -29 0 -33 20 -8 35 15 8 15 11 3 26 -18 21
-52 13 -101 -26 -37 -29 -55 -37 -44 -19 3 6 -1 10 -10 10 -8 0 -21 -12 -28
-27 -12 -29 -28 -45 -36 -38 -2 3 1 11 8 19 7 9 -4 6 -31 -7 -24 -11 -47 -27
-51 -34 -4 -7 -17 -13 -27 -13 -13 0 -32 -18 -52 -49 -18 -27 -40 -50 -48 -50
-8 0 -22 -1 -30 -1 -8 -1 -34 0 -58 2 -38 3 -43 1 -38 -15 3 -13 -3 -21 -22
-28 -23 -9 -30 -7 -52 18 l-26 29 2 189 c1 105 6 206 9 227 5 25 2 46 -9 69
-9 17 -16 40 -16 50 0 20 -50 98 -62 99 -5 0 -8 -7 -8 -15 0 -8 -4 -15 -9 -15
-15 0 -34 29 -28 44 5 13 -10 36 -24 36 -4 0 -12 -6 -18 -14z m981 -361 c3
-15 1 -25 -6 -25 -6 0 -12 11 -12 25 -2 32 12 32 18 0z m-452 -223 c0 -11 -22
-32 -32 -32 -5 0 -4 9 2 20 11 20 30 28 30 12z m-720 -16 c0 -3 -4 -8 -10 -11
-5 -3 -10 -1 -10 4 0 6 5 11 10 11 6 0 10 -2 10 -4z m640 -64 c0 -7 -33 -31
-43 -32 -4 0 -2 8 4 18 10 16 39 27 39 14z m-260 -77 c0 -8 -4 -15 -10 -15 -5
0 -10 7 -10 15 0 8 5 15 10 15 6 0 10 -7 10 -15z m-373 -277 c-3 -8 -6 -5 -6
6 -1 11 2 17 5 13 3 -3 4 -12 1 -19z"/>
<path d="M1965 2920 c3 -5 8 -10 11 -10 2 0 4 5 4 10 0 6 -5 10 -11 10 -5 0
-7 -4 -4 -10z"/>
<path d="M1140 2902 c-25 -2 -53 -10 -62 -19 -12 -10 -40 -15 -97 -15 -45 0
-84 -4 -87 -9 -3 -5 0 -9 5 -9 6 0 11 -4 11 -10 0 -5 -6 -7 -13 -4 -8 3 -34
-4 -59 -15 -26 -11 -49 -17 -52 -14 -3 4 -25 -7 -49 -24 -23 -17 -52 -33 -65
-37 -12 -4 -26 -15 -31 -25 -9 -16 -78 -43 -142 -56 -25 -4 -46 -31 -34 -43 3
-3 17 0 31 7 18 8 30 9 37 2 15 -15 -25 -62 -88 -101 -31 -19 -71 -47 -90 -62
-18 -16 -39 -28 -47 -28 -33 0 -83 -93 -94 -174 -4 -26 -10 -49 -15 -52 -5 -2
-4 -16 1 -29 5 -13 7 -46 3 -73 -3 -27 -1 -57 5 -68 5 -10 6 -28 2 -39 -4 -12
-1 -35 8 -55 91 -214 123 -248 417 -444 61 -40 133 -84 160 -98 77 -38 208
-109 228 -123 10 -7 34 -31 54 -55 52 -61 39 -69 -113 -71 -67 -1 -126 1 -131
4 -6 4 -43 11 -83 17 -53 7 -97 23 -168 60 -209 106 -197 102 -223 81 -21 -16
-22 -21 -9 -36 12 -15 12 -16 -6 -13 -16 3 -19 -2 -16 -36 3 -37 2 -38 -24
-33 -47 9 -76 -15 -35 -28 24 -7 36 -36 19 -46 -9 -6 -9 -11 0 -22 19 -22 -15
-31 -44 -12 -13 8 -37 15 -53 15 -28 0 -29 -1 -21 -30 5 -16 7 -30 4 -30 -17
0 40 -72 113 -144 95 -92 164 -146 187 -146 8 0 18 -4 21 -10 8 -13 98 -38
164 -45 30 -3 57 -8 61 -10 4 -2 38 -9 76 -15 38 -7 83 -14 99 -17 17 -3 66
-5 110 -5 66 0 92 5 153 31 40 16 98 48 130 69 31 22 79 52 106 67 65 37 140
113 172 177 39 75 42 196 8 286 -44 119 -210 340 -267 358 -12 4 -35 17 -50
30 -16 13 -41 27 -55 30 -108 23 -425 210 -517 304 l-38 39 -4 108 -5 109 44
43 c82 78 170 125 253 137 17 2 40 6 52 8 13 3 67 -6 120 -20 54 -14 116 -28
138 -31 21 -3 50 -13 64 -21 13 -9 33 -18 45 -19 12 -2 28 -12 36 -23 10 -14
19 -17 29 -10 10 5 25 3 42 -6 32 -16 59 -18 59 -5 0 5 13 14 29 19 29 10 48
34 54 69 2 10 9 29 15 43 10 23 24 71 27 95 0 6 -7 33 -16 61 -46 138 -111
192 -314 261 -118 40 -117 39 -175 35z"/>
<path d="M2670 2855 c0 -16 6 -25 15 -25 9 0 15 9 15 25 0 16 -6 25 -15 25 -9
0 -15 -9 -15 -25z"/>
<path d="M1869 2848 c-6 -11 -5 -48 1 -48 14 0 32 29 25 40 -5 9 -23 14 -26 8z"/>
<path d="M560 2746 c-57 -18 -85 -37 -70 -46 18 -11 54 -3 101 21 66 33 45 50
-31 25z"/>
<path d="M1895 2750 c3 -5 8 -10 11 -10 2 0 4 5 4 10 0 6 -5 10 -11 10 -5 0
-7 -4 -4 -10z"/>
<path d="M311 2524 c-27 -34 -27 -48 -1 -34 11 6 24 9 28 6 4 -2 9 6 10 19 3
35 -13 39 -37 9z"/>
<path d="M2865 2528 c-4 -9 -3 -24 2 -33 8 -14 11 -14 21 -2 9 10 8 18 -2 33
-13 17 -15 18 -21 2z"/>
<path d="M5373 2143 c-28 -10 -11 -28 27 -29 22 -1 40 2 40 6 0 11 -52 28 -67
23z"/>
<path d="M5470 2119 c0 -5 5 -7 10 -4 6 3 10 8 10 11 0 2 -4 4 -10 4 -5 0 -10
-5 -10 -11z"/>
<path d="M5537 2104 c-4 -4 -4 -10 -2 -14 6 -10 45 0 45 11 0 10 -33 12 -43 3z"/>
<path d="M3350 1733 c0 -5 4 -14 9 -22 11 -17 32 -5 24 14 -5 15 -33 21 -33 8z"/>
<path d="M5437 1625 c-22 -31 -13 -53 13 -30 22 20 33 55 17 55 -7 0 -20 -12
-30 -25z"/>
<path d="M4879 847 c-1 -7 -2 -20 -2 -29 0 -23 0 -23 -47 4 -43 25 -57 20 -62
-22 -3 -23 0 -25 30 -22 35 2 37 -3 22 -43 -9 -24 -8 -26 12 -23 16 2 24 12
29 36 9 43 15 48 34 28 9 -9 21 -13 27 -10 6 4 6 10 -1 17 -6 6 -11 23 -11 38
0 26 -29 50 -31 26z"/>
<path d="M5717 839 c7 -7 15 -10 18 -7 3 3 -2 9 -12 12 -14 6 -15 5 -6 -5z"/>
<path d="M4935 827 c-4 -10 -5 -21 -1 -24 10 -10 18 4 13 24 -4 17 -4 17 -12
0z"/>
<path d="M4916 735 c3 -11 -2 -34 -10 -50 -19 -35 -20 -45 -5 -45 5 0 8 4 4 9
-3 5 4 12 15 16 24 8 27 42 5 71 -14 19 -14 19 -9 -1z"/>
<path d="M5909 730 c12 -11 27 -17 32 -14 5 3 9 1 9 -4 0 -6 7 -12 15 -16 9
-3 15 0 15 10 0 8 -4 13 -9 9 -5 -3 -12 -1 -15 4 -3 5 -21 14 -38 20 l-33 11
24 -20z"/>
<path d="M1755 710 c-12 -19 5 -30 25 -17 11 6 20 15 20 19 0 12 -38 10 -45
-2z"/>
<path d="M1419 629 c0 -2 -2 -14 -5 -26 -3 -19 1 -23 23 -23 26 0 26 0 7 23
-10 12 -20 24 -21 26 -2 2 -3 2 -4 0z"/>
<path d="M4920 599 c0 -11 4 -18 10 -14 5 3 7 12 3 20 -7 21 -13 19 -13 -6z"/>
<path d="M2150 560 c0 -5 5 -10 11 -10 5 0 7 5 4 10 -3 6 -8 10 -11 10 -2 0
-4 -4 -4 -10z"/>
<path d="M5006 544 c-18 -18 -20 -24 -6 -24 5 0 14 9 20 20 13 24 7 26 -14 4z"/>
<path d="M327 503 c-13 -12 -7 -31 12 -36 25 -6 51 10 45 28 -6 15 -45 21 -57
8z"/>
<path d="M227 476 c-3 -8 -2 -18 4 -22 16 -9 22 2 11 21 -8 15 -10 16 -15 1z"/>
<path d="M65 421 c-3 -11 -15 -23 -27 -27 -16 -5 -18 -8 -7 -15 8 -5 18 -9 22
-9 13 0 57 52 51 61 -9 16 -32 10 -39 -10z"/>
</g>
</svg>
