<?xml version="1.0" encoding="utf-8"?>
<!-- Generator: Adobe Illustrator 24.3.0, SVG Export Plug-In . SVG Version: 6.00 Build 0)  -->
<svg version="1.1" id="Layer_1" xmlns="http://www.w3.org/2000/svg" xmlns:xlink="http://www.w3.org/1999/xlink" x="0px" y="0px" width="32px" height="32px"
	 viewBox="0 0 32 32" style="enable-background:new 0 0 32 32;" xml:space="preserve">
<style type="text/css">
	.st0{fill:#FFFFFF;}
</style>
<g id="Layer_0__x2B__Levels_1_xA0_Image_1_">
</g>
<g id="bg_specs">
</g>
<g id="type1">
</g>
<g id="bg_specs_1_">
</g>
<g id="type2">
</g>
<g id="bg_specs_2_">
</g>
<g>
	<path class="st0" d="M19.8,16.7c0.1,0-1.6-1.7-1.7-1.8c-0.4-0.5-0.6-1.1-1.1-1.4c-0.8-0.5-1.3-1.3-2-1.9c-1.7-1.4-3.4-2.6-5.2-3.8
		C8.1,6.6,6.5,5.4,4.9,4.1C4.9,4,4.8,4,4.7,3.9C4.5,3.6,4.5,3.3,4.7,3C5,2.6,5.6,2.2,5.4,1.6c0-0.1,0.1-0.3,0.2-0.4
		C6,0.9,6.4,0.6,6.8,0.3C7.3,0,7.9-0.1,8.5,0.1c1.2,0.4,2.3,0.9,3.3,1.6c1.3,0.9,2.7,1.8,3.9,2.8c0.2,0.1,0.4,0.2,0.5,0.4
		c0.4,0.9,1.4,1.4,2,2.1c0.6,0.8,1.3,1.5,2,2.2c1,1.1,2.1,2.1,3.5,2.8c1.2,0.6,2.2,1.3,3,2.3c0.4,0.4,0.5,0.9,0.7,1.4
		c0,0.1,0,0.3,0,0.4c-0.1,1.2-0.7,2.1-1.2,3.1c-0.1,0.1-0.2,0.2-0.2,0.4c-0.1,0.7-0.6,1.1-1.2,1.4c-1,0.7-2.1,1.3-3.2,1.9
		c-0.5,0.3-1,0.5-1.5,0.9c-0.3,0.2-0.7,0.3-1.1,0.5c-1.4,0.6-2.5,1.6-3.8,2.4c-1.1,0.8-2.2,1.7-3.3,2.6c-0.8,0.6-1.6,1.1-2.5,1.6
		c-0.5,0.3-0.9,0.6-1.4,1c-0.3,0.2-0.6,0.2-0.8-0.1c-0.3-0.3-0.4-0.6-0.5-1c-0.1-0.6-0.1-1.2-0.3-1.8c-0.5-1.5,0.1-2.5,1.4-3.4
		c0.6-0.4,1.3-0.8,2-1.2c1.3-0.7,2.4-1.6,3.4-2.6c0,0,1.8-1.3,1.8-1.4c0,0,0.8-0.9,1.1-1.1c0.4-0.3,1-0.4,1.8-1.3L19.8,16.7z"/>
</g>
</svg>
