<?xml version="1.0" encoding="utf-8"?>
<!-- Generator: Adobe Illustrator 24.2.3, SVG Export Plug-In . SVG Version: 6.00 Build 0)  -->
<svg version="1.1" id="Layer_1" xmlns="http://www.w3.org/2000/svg" xmlns:xlink="http://www.w3.org/1999/xlink" x="0px" y="0px" width="32px" height="32px"
	 viewBox="0 0 32 32" style="enable-background:new 0 0 32 32;" xml:space="preserve">
<style type="text/css">
	.st0{fill:none;}
	.st1{fill-rule:evenodd;clip-rule:evenodd;fill:#1E1E1D;}
</style>
<g id="Layer_0__x2B__Levels_1_xA0_Image_1_">
</g>
<g id="bg_specs">
</g>
<g id="type1">
</g>
<g id="bg_specs_1_">
</g>
<g id="type2">
</g>
<g id="bg_specs_2_">
</g>
<rect x="-842.9" y="-941.1" class="st0" width="1440" height="4146"/>
<path class="st1" d="M11.4,20.7c0.1-1,0.1-2.1,0.1-3.1c-0.1-0.9,0.1-1.8,0.2-2.7c0-0.5,0.1-1-0.1-1.4c-0.1-0.1-0.1-0.2-0.1-0.3
	c0.4-0.7,0.1-1.6,0.2-2.4c0.1-0.8,0.1-1.6,0.2-2.4c0.1-1,0.1-1.9,0.2-2.9c0-1,0.3-3.5,0.4-4.5c0-0.1,0.2-0.3,0.3-0.4
	c0.1-0.1,0.4-0.1,0.5-0.2c0.3-0.3,0.7,0.3,1.1-0.1c0.3-0.3,0.6-0.2,1-0.2c0.2,0,0.5-0.1,0.7-0.1c0.1,0,0.3,0,0.4,0
	c0.3,0.2,0.7,0.3,1,0.6c0.7,0.5,1.2,1.1,1,2c-0.1,0.7-0.1,2.9-0.3,3.5c-0.3,1-0.3,2-0.5,3.1c-0.1,0.5-0.1,1,0.1,1.6
	c0.1,0.3-0.1,0.6-0.1,1c0,0.3,0,0.5,0,0.9c-0.1,1-0.1,2-0.2,3c-0.1,0.6-0.1,1.2,0,1.8c0.1,0.6-0.1,1.2-0.1,1.8
	c0,0.1,0.1,0.3,0.1,0.3c0.1-0.1,0.3-0.1,0.3-0.2c2.2-2.5,5-4.5,7.5-6.7c0.1-0.1,0.3-0.3,0.5-0.3c1.3-0.5,2.1-1.6,2.9-2.7
	c0-0.1,0.1-0.1,0.1-0.1c0.5-0.7,0.9-0.7,1.3,0c0.1,0.3,0.3,0.5,0.5,0.6c0.8,0.2,1.1,0.9,1.3,1.6c0.1,0.2,0.1,0.3,0.2,0.5
	c0.1,0.1,0.1,0.3,0,0.4c-0.3,1-0.8,1.9-1.7,2.6c-0.8,0.6-1.6,1.3-2.4,1.9c-1.3,1.1-2.5,2.2-3.7,3.5c-1,1-1.9,2-2.7,3.1
	c-0.7,1-1.4,1.9-2.1,2.9c-1,1.4-1.9,2.9-3,4.1c-0.1,0.2-0.3,0.3-0.5,0.5c-0.5,0.5-1.2,0.7-2,0.7c-1.2-0.1-2.2-0.5-3.1-1.2
	c-0.2-0.2-0.4-0.4-0.7-0.5c-1.1-0.5-1.6-1.5-2.1-2.4c-0.6-1.2-1.2-2.4-1.7-3.6c-0.1-0.3-0.3-0.6-0.5-0.8c-0.4-0.5-0.8-1-1.3-1.6
	c-0.4-0.5-0.7-1.2-1.3-1.6c-1.2-1.7-2.4-3.4-3.1-5.5C0.1,14.6,0,14.5,0,14.3c-0.1-0.6,0-0.9,0.7-1C1.5,13.3,2.3,13,3.1,13
	c0.5-0.3,0.9,0,1.4,0.1c0.5,0.2,0.9,0.7,1.4,1C6,14.2,6,14.5,6,14.7c0.1,1.8,1,3.4,2.1,4.8c0.9,1,1.7,2,2.6,3.1
	c0.1,0.1,0.1,0.1,0.2,0.1c0.1-0.1,0.1-0.1,0.1-0.3C11.2,21.9,11.3,21.3,11.4,20.7"/>
</svg>
