<?xml version="1.0" encoding="utf-8"?>
<!-- Generator: Adobe Illustrator 24.3.0, SVG Export Plug-In . SVG Version: 6.00 Build 0)  -->
<svg version="1.1" id="Layer_1" xmlns="http://www.w3.org/2000/svg" xmlns:xlink="http://www.w3.org/1999/xlink" x="0px" y="0px" width="32px" height="32px"
	 viewBox="0 0 32 32" style="enable-background:new 0 0 32 32;" xml:space="preserve">
<style type="text/css">
	.st0{fill:none;}
	.st1{fill-rule:evenodd;clip-rule:evenodd;fill:#92314F;}
</style>
<g id="Layer_0__x2B__Levels_1_xA0_Image_1_">
</g>
<g id="bg_specs">
</g>
<g id="type1">
</g>
<g id="bg_specs_1_">
</g>
<g id="type2">
</g>
<g id="bg_specs_2_">
</g>
<rect x="-842.9" y="-941.1" class="st0" width="1440" height="4146"/>
<path class="st1" d="M16.4,10.3c0.4,0.9,0.8,1.9,1.3,2.8c0.5,0.8,0.7,1.7,1,2.5c0.2,0.4,0.4,0.9,0.7,1.2c0.1,0,0.2,0.1,0.2,0.2
	c-0.1,0.8,0.6,1.5,0.9,2.2c0.3,0.8,0.6,1.5,0.9,2.2c0.4,0.9,0.7,1.7,1.1,2.7c0.4,0.9,1.3,3.3,1.6,4.2c0,0.1,0,0.4-0.1,0.5
	c0,0.1-0.3,0.3-0.4,0.4c-0.1,0.4-0.8,0-0.9,0.6c-0.1,0.4-0.5,0.4-0.8,0.6c-0.2,0.1-0.4,0.3-0.6,0.4c-0.1,0-0.3,0.1-0.4,0.2
	c-0.4,0-0.8,0-1.2-0.1c-0.8-0.1-1.6-0.5-1.8-1.4c-0.2-0.7-1.2-2.6-1.3-3.3c-0.2-1-0.6-1.9-0.9-3c-0.1-0.5-0.4-0.9-0.8-1.4
	c-0.2-0.2-0.2-0.6-0.4-0.9c-0.1-0.3-0.2-0.4-0.4-0.8c-0.4-0.9-0.8-1.8-1.1-2.8c-0.2-0.6-0.4-1.1-0.8-1.6c-0.4-0.5-0.4-1.1-0.7-1.7
	c0-0.1-0.2-0.2-0.2-0.2c0,0.1-0.2,0.2-0.2,0.3c-0.9,3.2-1.3,2.8-2.6,5.9c0,0.1-0.1,0.4-0.3,0.5c-0.9,1-1.2,2.4-1.4,3.7
	c0,0.1,0,0.1,0,0.1c-0.1,0.8-0.5,1-1.2,0.6c-0.2-0.2-0.5-0.3-0.7-0.3c-0.8,0.2-1.4-0.3-1.9-0.9c0,0.1-0.1,0-0.3-0.1
	c-0.1,0-0.2-0.2-0.2-0.4c-0.2-1-0.1-2.1,0.4-3.1c0.5-0.9,0.9-1.9,1.3-2.8c0.7-1.6,0.1,0.3,0.6-1.4c0.5-1.3,0.8-2.6,1.1-4
	c0.2-1.1,0.4-2.2,0.6-3.4c0.3-1.7,0.4-3.4,0.9-5c0-0.2,0.1-0.4,0.2-0.7c0.2-0.7,0.8-1.2,1.5-1.5c1.1-0.4,2.2-0.5,3.3-0.3
	c0.3,0.1,0.5,0.2,0.8,0.1c1.2,0,2.1,0.6,2.9,1.2c1.1,0.8,2.1,1.6,3.1,2.5C19.4,5,19.7,5.2,20,5.3c0.6,0.3,1.2,0.5,1.9,0.9
	c0.6,0.3,1.2,0.8,1.9,0.9c1.8,1,3.7,2,5.2,3.6c0.2,0.1,0.3,0.2,0.4,0.4c0.4,0.5,0.4,0.8-0.2,1.2c-0.7,0.4-1.3,1-2,1.3
	c-0.3,0.5-0.8,0.4-1.3,0.5c-0.5,0-1.1-0.2-1.7-0.3c-0.1,0-0.3-0.3-0.4-0.5c-0.9-1.6-2.4-2.6-4-3.4c-1.2-0.5-2.4-1-3.7-1.6
	c-0.1,0-0.1,0-0.2,0c0,0.1,0,0.1,0,0.3C16.1,9.1,16.2,9.7,16.4,10.3"/>
</svg>
