<?xml version="1.0" encoding="utf-8"?>
<!-- Generator: Adobe Illustrator 24.1.2, SVG Export Plug-In . SVG Version: 6.00 Build 0)  -->
<svg version="1.1" id="Calque_1" xmlns="http://www.w3.org/2000/svg" xmlns:xlink="http://www.w3.org/1999/xlink" x="0px" y="0px"
	 viewBox="0 0 92.9 40.4" style="enable-background:new 0 0 92.9 40.4;" xml:space="preserve">
<style type="text/css">
	.st0{fill:#E0E0D8;}
</style>
<path class="st0" d="M1.1,24.2c-0.2,0-0.3,0.1-0.4,0.4L0,29.7l0.7,5.1c0,0.2,0.2,0.4,0.4,0.4s0.3-0.1,0.4-0.4l0,0l0,0l0,0l0.8-5.1
	l-0.8-5.2C1.4,24.3,1.2,24.2,1.1,24.2z M4.9,21.3c0-0.2-0.2-0.4-0.4-0.4c-0.2,0-0.4,0.2-0.4,0.4l-0.9,8.4l0.9,8.2
	c0,0.2,0.2,0.4,0.4,0.4c0.2,0,0.4-0.2,0.4-0.4l1-8.2L4.9,21.3z M19.3,13.6c-0.4,0-0.7,0.3-0.7,0.7l-0.7,15.4l0.7,9.9
	c0,0.4,0.3,0.7,0.7,0.7c0.4,0,0.7-0.3,0.7-0.7l0,0l0.8-9.9L20,14.3C20,13.9,19.7,13.6,19.3,13.6z M11.8,19c-0.3,0-0.5,0.2-0.5,0.5
	l-0.8,10.2l0.8,9.8c0,0.3,0.3,0.5,0.5,0.5c0.3,0,0.5-0.2,0.5-0.5l0.9-9.8l-0.9-10.2C12.3,19.2,12.1,19,11.8,19z M26.9,40.3
	c0.5,0,0.8-0.4,0.9-0.9l0.7-9.8L27.7,9.2c0-0.5-0.4-0.9-0.9-0.9S26,8.7,25.9,9.2l-0.6,20.5l0.6,9.8C26,39.9,26.4,40.3,26.9,40.3z
	 M42.4,40.4c0.6,0,1.2-0.5,1.2-1.2l0,0l0,0l0.5-9.5L43.5,6.1c0-0.6-0.5-1.2-1.2-1.2c-0.6,0-1.2,0.5-1.2,1.2l-0.4,23.6l0.4,9.5
	C41.2,39.8,41.7,40.4,42.4,40.4z M34.6,40.3c0.6,0,1-0.4,1-1l0,0l0.6-9.6L35.6,9.1c0-0.6-0.5-1-1-1c-0.6,0-1,0.4-1,1L33,29.7
	l0.5,9.6C33.5,39.9,34,40.3,34.6,40.3z M15.5,40.2c0.3,0,0.6-0.3,0.6-0.6l0.9-9.9l-0.9-9.4c0-0.3-0.3-0.6-0.6-0.6s-0.6,0.3-0.6,0.6
	l-0.8,9.4l0.8,9.9C14.9,40,15.2,40.2,15.5,40.2z M8.1,39.7c0.2,0,0.4-0.2,0.5-0.5l1-9.5l-1-9.9c0-0.3-0.2-0.5-0.5-0.5
	c-0.2,0-0.4,0.2-0.5,0.5l-0.9,9.9l0.9,9.5C7.7,39.5,7.9,39.7,8.1,39.7z M38.4,8.7c-0.6,0-1.1,0.5-1.1,1.1l-0.5,19.9l0.5,9.6
	c0,0.6,0.5,1.1,1.1,1.1s1.1-0.5,1.1-1.1l0,0l0.6-9.6L39.5,9.8C39.5,9.2,39,8.7,38.4,8.7z M23.1,40.3c0.4,0,0.8-0.3,0.8-0.8l0.8-9.9
	l-0.8-18.9c0-0.4-0.4-0.8-0.8-0.8s-0.8,0.3-0.8,0.8l-0.7,18.9l0.7,9.9C22.3,40,22.6,40.3,23.1,40.3z M31.6,39.4L31.6,39.4l0.7-9.7
	L31.6,8.5c0-0.5-0.4-0.9-0.9-0.9S29.8,8,29.8,8.5l-0.6,21.1l0.6,9.7c0,0.5,0.4,0.9,0.9,0.9C31.2,40.3,31.6,39.9,31.6,39.4L31.6,39.4
	z M81.5,17.5c-1.6,0-3.1,0.3-4.4,0.9C76.2,8.1,67.6,0,57,0c-2.6,0-5.1,0.5-7.3,1.4c-0.9,0.3-1.1,0.7-1.1,1.3V39
	c0,0.7,0.6,1.3,1.2,1.4c0,0,31.5,0,31.7,0c6.3,0,11.4-5.1,11.4-11.4S87.9,17.5,81.5,17.5z M46.3,2.7C45.6,2.7,45,3.3,45,4l-0.5,25.8
	l0.5,9.4c0,0.7,0.6,1.2,1.3,1.2s1.2-0.6,1.3-1.3l0,0l0.6-9.4L47.5,3.9C47.5,3.2,47,2.7,46.3,2.7z"/>
</svg>
