<?xml version="1.0" encoding="utf-8"?>
<!-- Generator: Adobe Illustrator 24.1.2, SVG Export Plug-In . SVG Version: 6.00 Build 0)  -->
<svg version="1.1" id="Layer_1" xmlns="http://www.w3.org/2000/svg" xmlns:xlink="http://www.w3.org/1999/xlink" x="0px" y="0px"
	 viewBox="0 0 15.9 19.8" style="enable-background:new 0 0 15.9 19.8;" xml:space="preserve">
<style type="text/css">
	.st0{fill:#E0E0D8;}
</style>
<path class="st0" d="M10.8,3.2C10.1,4,9,4.7,7.9,4.6c-0.2-1.2,0.4-2.4,1-3.1C9.6,0.6,10.8,0,11.8,0C11.9,1.1,11.5,2.3,10.8,3.2
	L10.8,3.2z M11.8,4.8c0.6,0,2.4,0.2,3.6,2c-0.1,0.1-2.1,1.3-2.1,3.8c0,3,2.6,4,2.6,4c0,0.1-0.4,1.4-1.3,2.8c-0.8,1.2-1.7,2.4-3,2.4
	S9.9,19,8.4,19s-2,0.8-3.2,0.8c-1.3,0-2.3-1.3-3.1-2.5c-1.7-2.5-3-7-1.2-10c0.8-1.5,2.4-2.5,4-2.5c1.3,0,2.5,0.9,3.2,0.9
	C8.8,5.7,10.2,4.7,11.8,4.8L11.8,4.8z"/>
</svg>
