<?xml version="1.0" encoding="utf-8"?>
<!-- Generator: Adobe Illustrator 24.1.2, SVG Export Plug-In . SVG Version: 6.00 Build 0)  -->
<svg version="1.1" id="Layer_1" xmlns="http://www.w3.org/2000/svg" xmlns:xlink="http://www.w3.org/1999/xlink" x="0px" y="0px"
	 viewBox="0 0 59.3 49.9" style="enable-background:new 0 0 59.3 49.9;" xml:space="preserve">
<style type="text/css">
	.st0{fill-rule:evenodd;clip-rule:evenodd;fill:#E0E0D8;}
	.st1{fill:#E0E0D8;}
</style>
<desc>Created with Sketch.</desc>
<g id="Clip-12">
</g>
<g id="Clip-25">
</g>
<g id="Clip-30">
</g>
<path class="st0" d="M52.7,41c-7.3,3.1-15.2,4.6-22.4,4.6c-10.7,0-21-2.9-29.3-7.8c-0.7-0.4-1.3,0.3-0.7,0.9
	c7.8,7,18,11.2,29.3,11.2c8.1,0,17.5-2.6,24-7.3C54.7,41.7,53.8,40.5,52.7,41z M48.6,38.3c-0.6,0.4-0.5,0.9,0.1,0.9
	c2.1-0.3,6.7-0.8,7.6,0.3s-0.9,5.5-1.7,7.4c-0.3,0.6,0.3,0.9,0.8,0.4c3.5-2.9,4.4-9,3.7-9.9C58.4,36.4,52.3,35.7,48.6,38.3z"/>
<g>
	<path class="st1" d="M46.2,31.2c-1.3-1.8-2.5-3-2.5-6.2V14.7c0-4.3,0.4-8.3-2.9-11.4C38.2,0.9,34.1,0,30.8,0
		C24.5,0,17.5,2.3,16,10.1c-0.1,0.9,0.5,1.3,1,1.4l6.4,0.8c0.6-0.1,1-0.6,1.1-1.3c0.5-2.8,2.8-4,5.3-4c1.3,0,2.9,0.5,3.7,1.8
		c0.9,1.4,0.8,3.3,0.8,4.8v0.9c-3.9,0.4-9,0.8-12.5,2.3c-4.2,1.8-7.1,5.4-7.1,10.9c0,7,4.3,10.4,10,10.4c4.8,0,7.3-1.1,11-4.8
		c1.1,1.8,1.6,2.7,3.8,4.4c0.5,0.3,1.1,0.3,1.5-0.1c1.3-1.1,3.7-3.3,5.1-4.4C46.6,32.6,46.6,31.8,46.2,31.2z M34.3,21.2
		c0,2.5,0,4.7-1.3,7.1c-1,1.9-2.7,3-4.5,3c-2.5,0-4-1.9-4-4.8c0-5.7,5.1-6.7,9.9-6.7V21.2z"/>
</g>
</svg>
