<?xml version="1.0" encoding="utf-8"?>
<!-- Generator: Adobe Illustrator 24.1.2, SVG Export Plug-In . SVG Version: 6.00 Build 0)  -->
<svg version="1.1" id="Layer_1" xmlns="http://www.w3.org/2000/svg" xmlns:xlink="http://www.w3.org/1999/xlink" x="0px" y="0px"
	 viewBox="0 0 167.4 167.4" style="enable-background:new 0 0 167.4 167.4;" xml:space="preserve">
<style type="text/css">
	.st0{fill:#E0E0D8;}
</style>
<g>
	<path class="st0" d="M83.7,0C37.4,0,0,37.5,0,83.7c0,46.3,37.5,83.7,83.7,83.7c46.3,0,83.7-37.5,83.7-83.7S129.9,0,83.7,0z
		 M122.1,120.8c-1.5,2.5-4.7,3.2-7.2,1.7c-19.7-12-44.4-14.7-73.6-8.1c-2.8,0.6-5.6-1.1-6.2-3.9c-0.6-2.8,1.1-5.6,3.9-6.2
		c31.9-7.3,59.3-4.2,81.3,9.3C122.8,115.1,123.6,118.3,122.1,120.8z M132.3,98c-1.9,3.1-5.9,4-9,2.2c-22.5-13.8-56.8-17.8-83.4-9.8
		c-3.5,1-7.1-0.9-8.1-4.3c-1-3.5,0.9-7.1,4.4-8.1c30.4-9.2,68.2-4.8,94.1,11.1C133.3,90.9,134.2,94.9,132.3,98z M143.8,71.4
		c-2,3.8-6.9,5-10.6,2.8c-27-16-71.5-17.5-97.3-9.7c-4.1,1.3-8.5-1.1-9.8-5.2s1.1-8.5,5.2-9.8c29.6-9,78.8-7.2,109.8,11.2
		C144.8,62.9,146,67.7,143.8,71.4z"/>
</g>
</svg>
