<svg width="58" height="24" viewBox="0 0 58 24" fill="none" xmlns="http://www.w3.org/2000/svg">
<rect x="0.5" y="0.5" width="57" height="23" rx="3.5" stroke="white"/>
<path d="M20.667 8.5332C21.3278 8.5332 21.8906 8.66764 22.3555 8.93652C22.8249 9.20085 23.1849 9.56999 23.4355 10.0439C23.6862 10.5133 23.8298 11.0557 23.8662 11.6709C23.8662 11.8258 23.832 11.9352 23.7637 11.999C23.6999 12.0628 23.5905 12.0947 23.4355 12.0947H18.4863C18.5182 12.7738 18.7188 13.2887 19.0879 13.6396C19.4616 13.986 19.988 14.1592 20.667 14.1592C21.0863 14.1592 21.501 14.1068 21.9111 14.002C22.3213 13.8926 22.6813 13.749 22.9912 13.5713C23.0687 13.5303 23.1393 13.5098 23.2031 13.5098C23.3626 13.5098 23.4925 13.6305 23.5928 13.8721C23.6338 13.9678 23.6543 14.0544 23.6543 14.1318C23.6543 14.3141 23.554 14.4554 23.3535 14.5557C23.0026 14.7334 22.5879 14.877 22.1094 14.9863C21.6309 15.0957 21.1501 15.1504 20.667 15.1504C19.9788 15.1504 19.391 15.0182 18.9033 14.7539C18.4157 14.4896 18.0443 14.109 17.7891 13.6123C17.5339 13.1156 17.4062 12.5254 17.4062 11.8418C17.4062 11.1901 17.5452 10.6136 17.8232 10.1123C18.1012 9.611 18.4863 9.22363 18.9785 8.9502C19.4707 8.6722 20.0335 8.5332 20.667 8.5332ZM20.667 9.52441C20.1064 9.52441 19.6416 9.66797 19.2725 9.95508C18.9079 10.2376 18.6686 10.6318 18.5547 11.1377H22.7314C22.6357 10.6136 22.4147 10.2148 22.0684 9.94141C21.7266 9.66341 21.2594 9.52441 20.667 9.52441ZM31.1533 8.5332C31.3402 8.5332 31.4723 8.56738 31.5498 8.63574C31.6273 8.7041 31.666 8.81803 31.666 8.97754V10.2764C31.666 10.4359 31.6273 10.5498 31.5498 10.6182C31.4723 10.6865 31.3402 10.7207 31.1533 10.7207C30.9984 10.7207 30.889 10.6615 30.8252 10.543C30.6292 10.1693 30.3444 9.90723 29.9707 9.75684C29.597 9.60189 29.123 9.52441 28.5488 9.52441C28.1068 9.52441 27.7604 9.60417 27.5098 9.76367C27.2637 9.91862 27.1406 10.1374 27.1406 10.4199C27.1406 10.5658 27.1862 10.6842 27.2773 10.7754C27.373 10.8665 27.512 10.9417 27.6943 11.001C27.8447 11.0511 28.0179 11.0898 28.2139 11.1172C28.4144 11.1445 28.6719 11.1742 28.9863 11.2061C29.4284 11.2562 29.7839 11.304 30.0527 11.3496C30.3262 11.3906 30.5837 11.4544 30.8252 11.541C31.1898 11.6732 31.4723 11.8646 31.6729 12.1152C31.8779 12.3659 31.9805 12.6963 31.9805 13.1064C31.9805 13.5166 31.8757 13.8766 31.666 14.1865C31.4609 14.4919 31.1579 14.7288 30.7568 14.8975C30.3604 15.0661 29.8841 15.1504 29.3281 15.1504C28.8359 15.1504 28.403 15.082 28.0293 14.9453C27.6556 14.8086 27.3298 14.6012 27.0518 14.3232V14.7061C27.0518 14.8656 27.013 14.9795 26.9355 15.0479C26.8581 15.1162 26.7259 15.1504 26.5391 15.1504C26.3522 15.1504 26.2201 15.1162 26.1426 15.0479C26.0651 14.9795 26.0264 14.8656 26.0264 14.7061V13.0654C26.0264 12.9059 26.0651 12.792 26.1426 12.7236C26.2201 12.6553 26.3522 12.6211 26.5391 12.6211C26.6348 12.6211 26.71 12.6439 26.7646 12.6895C26.8193 12.7305 26.8672 12.8011 26.9082 12.9014C27.0723 13.3389 27.3457 13.6579 27.7285 13.8584C28.1113 14.0589 28.6217 14.1592 29.2598 14.1592C29.7884 14.1592 30.194 14.0635 30.4766 13.8721C30.7591 13.6807 30.9004 13.4255 30.9004 13.1064C30.9004 12.9515 30.8503 12.8239 30.75 12.7236C30.6497 12.6234 30.5062 12.5413 30.3193 12.4775C30.1598 12.4274 29.9753 12.3864 29.7656 12.3545C29.5605 12.318 29.2985 12.2839 28.9795 12.252C28.5511 12.2064 28.1934 12.1585 27.9062 12.1084C27.6191 12.0583 27.3548 11.9854 27.1133 11.8896C26.7806 11.7575 26.5208 11.5752 26.334 11.3428C26.1517 11.1058 26.0605 10.7982 26.0605 10.4199C26.0605 10.0234 26.1631 9.68392 26.3682 9.40137C26.5778 9.11426 26.8649 8.89779 27.2295 8.75195C27.5986 8.60612 28.0156 8.5332 28.4805 8.5332C28.9225 8.5332 29.3258 8.59928 29.6904 8.73145C30.0596 8.86361 30.3763 9.04818 30.6406 9.28516V8.97754C30.6406 8.81803 30.6794 8.7041 30.7568 8.63574C30.8343 8.56738 30.9665 8.5332 31.1533 8.5332ZM39.8555 8.5332C40.0423 8.5332 40.1745 8.56738 40.252 8.63574C40.3294 8.7041 40.3682 8.81803 40.3682 8.97754V10.96C40.3682 11.1195 40.3294 11.2334 40.252 11.3018C40.1745 11.3701 40.0423 11.4043 39.8555 11.4043C39.6686 11.4043 39.5365 11.3701 39.459 11.3018C39.3815 11.2334 39.3428 11.1195 39.3428 10.96C39.3428 10.682 39.2699 10.4359 39.124 10.2217C38.9782 10.0075 38.7594 9.84115 38.4678 9.72266C38.1807 9.60417 37.8343 9.54492 37.4287 9.54492C36.9912 9.54492 36.5993 9.6429 36.2529 9.83887C35.9066 10.0348 35.6354 10.3083 35.4395 10.6592C35.2435 11.0101 35.1455 11.4043 35.1455 11.8418C35.1455 12.2839 35.2367 12.6803 35.4189 13.0312C35.6058 13.3776 35.8656 13.6488 36.1982 13.8447C36.5355 14.0407 36.9229 14.1387 37.3604 14.1387C37.7796 14.1387 38.1852 14.0749 38.5771 13.9473C38.9736 13.8151 39.3337 13.626 39.6572 13.3799C39.7529 13.307 39.8418 13.2705 39.9238 13.2705C40.056 13.2705 40.179 13.3639 40.293 13.5508C40.3613 13.6647 40.3955 13.7741 40.3955 13.8789C40.3955 14.0384 40.3226 14.1706 40.1768 14.2754C39.8122 14.5488 39.3815 14.763 38.8848 14.918C38.388 15.0729 37.8799 15.1504 37.3604 15.1504C36.7087 15.1504 36.1322 15.0068 35.6309 14.7197C35.1341 14.4326 34.749 14.0384 34.4756 13.5371C34.2021 13.0358 34.0654 12.4707 34.0654 11.8418C34.0654 11.2129 34.2044 10.6478 34.4824 10.1465C34.7604 9.64518 35.1478 9.25098 35.6445 8.96387C36.1458 8.67676 36.7178 8.5332 37.3604 8.5332C37.766 8.5332 38.1374 8.6084 38.4746 8.75879C38.8164 8.90462 39.1058 9.11426 39.3428 9.3877V8.97754C39.3428 8.81803 39.3815 8.7041 39.459 8.63574C39.5365 8.56738 39.6686 8.5332 39.8555 8.5332Z" fill="white"/>
</svg>
