<?xml version="1.0" encoding="utf-8"?>
<!-- Generator: Adobe Illustrator 24.1.2, SVG Export Plug-In . SVG Version: 6.00 Build 0)  -->
<svg version="1.1" id="Layer_1" xmlns="http://www.w3.org/2000/svg" xmlns:xlink="http://www.w3.org/1999/xlink" x="0px" y="0px"
	 viewBox="0 0 14 16" style="enable-background:new 0 0 14 16;" xml:space="preserve">
<style type="text/css">
	.st0{clip-path:url(#SVGID_2_);fill:#E0E0D8;}
</style>
<g>
	<defs>
		<path id="SVGID_1_" d="M14,8c0-0.3-0.2-0.6-0.5-0.8l-11.7-7C1.5,0,1-0.1,0.6,0.1C0.2,0.3,0,0.6,0,1v14c0,0.4,0.2,0.7,0.6,0.9
			C1,16.1,1.5,16,1.8,15.8l11.7-7C13.8,8.6,14,8.3,14,8C14,8,14,8,14,8C14,8,14,8,14,8z"/>
	</defs>
	<clipPath id="SVGID_2_">
		<use xlink:href="#SVGID_1_"  style="overflow:visible;"/>
	</clipPath>
	<rect x="-5" y="-5" class="st0" width="24" height="26"/>
</g>
</svg>
